<?xml version="1.0" encoding="UTF-8"?>
<svg id="Layer_2" data-name="Layer 2" xmlns="http://www.w3.org/2000/svg" viewBox="0 0 939.08 110.36">
  <defs>
    <style>
      .cls-1 {
        fill: #fff;
      }
    </style>
  </defs>
  <g id="Layer_1-2" data-name="Layer 1">
    <g>
      <path class="cls-1" d="M180.11,77.15l51.03-42.48h-51.03V11.64h89.24s0,23.03,0,23.03l-51.84,42.48h51.84v23.03s-89.24,0-89.24,0v-23.03Z"/>
      <path class="cls-1" d="M297.59,46.05h53.22v19.59h-53.22v11.51h53.22s0,23.03,0,23.03h-74.26V11.64h74.26s0,23.03,0,23.03h-53.22v11.38Z"/>
      <path class="cls-1" d="M885.86,45.32h53.22v19.59h-53.22v11.51h53.22s0,23.03,0,23.03h-74.26V10.91h74.26s0,23.03,0,23.03h-53.22v11.38Z"/>
      <path class="cls-1" d="M426.76,91.71c-3.56,6.62-8.13,9.93-13.52,9.93s-9.66-3.04-13.32-9.93l-42.59-80.07h25l31.41,60.22,32.02-60.22h24.6l-43.6,80.07Z"/>
      <path class="cls-1" d="M475.13,100.18l12.6-23.03h29.27l-19.21-36.13-32.22,59.16h-24.6l43.6-80.07c2.95-5.29,7.01-9.93,13.52-9.93s10.47,4.37,13.42,9.93l42.59,80.07h-78.98Z"/>
      <path class="cls-1" d="M637.24,72.91l20.53,27.26h-27.75l-17.08-23.56h-30.8v23.56h-20.94v-45.66h60.27c7.73,0,11.08-2.91,11.08-9.53,0-7.15-3.56-10.32-11.18-10.32h-60.17l14.03-23.03h44.11c21.34,0,34.25,12.04,34.25,32.29,0,13.76-6,23.82-16.36,28.98Z"/>
      <path class="cls-1" d="M760.82,55.84c0,30.97-16.06,45.79-49.8,45.79s-49.6-14.69-49.6-45.79,15.86-45.66,49.6-45.66,49.8,14.69,49.8,45.66ZM682.35,55.84c0,18,6.1,22.76,28.66,22.76s28.76-4.76,28.76-22.76-5.89-22.63-28.76-22.63-28.66,4.76-28.66,22.63Z"/>
      <path class="cls-1" d="M831.65,101.77l-40.35-53.07v51.48h-20.23V10.18h20.23l40.35,53.07V11.64h20.13v90.13"/>
    </g>
    <path class="cls-1" d="M43.94,85.39L.99,11.01C-1.83,6.11,1.7,0,7.35,0h85.89c5.65,0,9.18,6.11,6.35,11.01l-42.94,74.38c-2.82,4.89-9.88,4.89-12.71,0Z"/>
    <path class="cls-1" d="M102.08,24.97l-42.94,74.38c-2.82,4.89.71,11.01,6.35,11.01h85.89c5.65,0,9.18-6.11,6.35-11.01L114.79,24.97c-2.82-4.89-9.88-4.89-12.71,0Z"/>
  </g>
</svg>